<svg xmlns="http://www.w3.org/2000/svg" width="125.56" height="125.56" viewBox="0 0 125.56 125.56">
  <defs>
    <style>
      .cls-1 {
        fill: #6dcff6;
      }
    </style>
  </defs>
  <title>nineThreeSm</title>
  <g id="Layer_2" data-name="Layer 2">
    <g id="Layer_1-2" data-name="Layer 1">
      <path class="cls-1" d="M62.78,125.56a62.78,62.78,0,1,1,62.78-62.78,62.85,62.85,0,0,1-62.78,62.78m0-122.3A59.51,59.51,0,1,0,122.3,62.78,59.58,59.58,0,0,0,62.78,3.27"/>
      <g>
        <path class="cls-1" d="M21.61,71.68a7.65,7.65,0,0,0,2.33,4.71,7,7,0,0,0,5,1.81,7.6,7.6,0,0,0,5-1.55,10.47,10.47,0,0,0,3-3.91,18,18,0,0,0,1.41-5.09,40.69,40.69,0,0,0,.35-5.14h-.1a10.41,10.41,0,0,1-9.33,5.82,12.42,12.42,0,0,1-4.79-.88A10.59,10.59,0,0,1,20.76,65a10.86,10.86,0,0,1-2.33-3.71,13.1,13.1,0,0,1-.83-4.71,12.56,12.56,0,0,1,.88-4.74,11.13,11.13,0,0,1,2.46-3.76,11.45,11.45,0,0,1,3.76-2.48,12.4,12.4,0,0,1,4.79-.9,14.1,14.1,0,0,1,5.52,1,8.61,8.61,0,0,1,3.81,3.21A16.09,16.09,0,0,1,41,54.68a44.24,44.24,0,0,1,.73,8.67c0,.7,0,1.62-.13,2.76a23.61,23.61,0,0,1-.58,3.63,24.73,24.73,0,0,1-1.28,3.91,13.31,13.31,0,0,1-2.21,3.59,10.55,10.55,0,0,1-3.43,2.61,11.1,11.1,0,0,1-4.91,1,11.39,11.39,0,0,1-7.45-2.28,10,10,0,0,1-3.34-6.9Zm7.62-6a9,9,0,0,0,3.69-.73,8.06,8.06,0,0,0,2.76-2A8.37,8.37,0,0,0,37.38,60,11.15,11.15,0,0,0,38,56.39a12,12,0,0,0-.5-3.51A7.7,7.7,0,0,0,35.88,50a7.43,7.43,0,0,0-2.73-1.93,10.09,10.09,0,0,0-4-.7,7.9,7.9,0,0,0-3.44.73,8.46,8.46,0,0,0-4.39,4.84,10,10,0,0,0-.6,3.46A11.21,11.21,0,0,0,21.34,60,8.77,8.77,0,0,0,23,63a7.65,7.65,0,0,0,2.66,2,8.47,8.47,0,0,0,3.59.73"/>
        <path class="cls-1" d="M84.77,68.92a10.27,10.27,0,0,0,.48,3.81,7.56,7.56,0,0,0,4.51,4.79,10.09,10.09,0,0,0,3.79.68,11.35,11.35,0,0,0,3.34-.5,8.65,8.65,0,0,0,2.88-1.5,7.62,7.62,0,0,0,2-2.43,7,7,0,0,0,.75-3.33,7.7,7.7,0,0,0-.65-3.26,6.41,6.41,0,0,0-1.81-2.33,7.76,7.76,0,0,0-2.68-1.38A11.63,11.63,0,0,0,94.09,63H91.43V60.35h2.66A9.33,9.33,0,0,0,96.57,60a6.39,6.39,0,0,0,4-3.16,6,6,0,0,0,.65-2.86,6.78,6.78,0,0,0-.6-3A5.77,5.77,0,0,0,99,48.94a6.77,6.77,0,0,0-2.46-1.2,11.41,11.41,0,0,0-3-.38,8.68,8.68,0,0,0-3.46.65,7.07,7.07,0,0,0-2.53,1.83A7.61,7.61,0,0,0,86,52.65a11.1,11.1,0,0,0-.45,3.59H82.41a13.3,13.3,0,0,1,.78-4.59A10.64,10.64,0,0,1,85.39,48a10.17,10.17,0,0,1,3.48-2.41,11.68,11.68,0,0,1,4.61-.88,15.29,15.29,0,0,1,4,.53,10.9,10.9,0,0,1,3.49,1.6,8.06,8.06,0,0,1,2.46,2.78,9,9,0,0,1-.6,9,7.38,7.38,0,0,1-4.39,2.81v.1a8.23,8.23,0,0,1,5.34,2.88,8.94,8.94,0,0,1,1.88,5.79,10.28,10.28,0,0,1-1,4.56,9.87,9.87,0,0,1-2.63,3.36,11.56,11.56,0,0,1-3.86,2.05,15.13,15.13,0,0,1-4.61.7,15,15,0,0,1-5-.8,10.91,10.91,0,0,1-3.91-2.33A9.68,9.68,0,0,1,82.23,74a11.94,11.94,0,0,1-.63-5Z"/>
        <rect class="cls-1" x="60.29" y="37.98" width="2.73" height="49.6"/>
      </g>
    </g>
  </g>
</svg>
