<svg xmlns="http://www.w3.org/2000/svg" width="307.06" height="56.65" viewBox="0 0 307.06 56.65">
  <defs>
    <style>
      .cls-1 {
        fill: #414042;
      }

      .cls-2 {
        fill: #6dcff6;
      }
    </style>
  </defs>
  <title>nineThreeFull</title>
  <g id="Layer_2" data-name="Layer 2">
    <g id="Layer_1-2" data-name="Layer 1">
      <polygon class="cls-1" points="71.17 14.11 84.26 41.04 84.34 41.04 84.34 14.11 86.01 14.11 86.01 43.78 83.81 43.78 70.67 16.85 70.59 16.85 70.59 43.78 68.93 43.78 68.93 14.11 71.17 14.11"/>
      <rect class="cls-1" x="99.22" y="14.11" width="1.66" height="29.67"/>
      <polygon class="cls-1" points="116.43 14.11 129.52 41.04 129.6 41.04 129.6 14.11 131.26 14.11 131.26 43.78 129.06 43.78 115.93 16.85 115.85 16.85 115.85 43.78 114.18 43.78 114.18 14.11 116.43 14.11"/>
      <polygon class="cls-1" points="144.48 14.11 158.65 14.11 158.65 15.61 146.14 15.61 146.14 27.53 157.82 27.53 157.82 29.03 146.14 29.03 146.14 42.29 159.03 42.29 159.03 43.78 144.48 43.78 144.48 14.11"/>
      <polygon class="cls-2" points="187.53 14.11 187.53 19.01 181.05 19.01 181.05 43.78 175.07 43.78 175.07 19.01 168.58 19.01 168.58 14.11 187.53 14.11"/>
      <polygon class="cls-2" points="198.55 14.11 204.53 14.11 204.53 25.45 211.51 25.45 211.51 14.11 217.5 14.11 217.5 43.78 211.51 43.78 211.51 30.61 204.53 30.61 204.53 43.78 198.55 43.78 198.55 14.11"/>
      <path class="cls-2" d="M230.09,14.11h11.05A8.33,8.33,0,0,1,247,16Q249,17.89,249,21.76a9,9,0,0,1-1.21,4.88,5.59,5.59,0,0,1-3.74,2.43v.08a6.32,6.32,0,0,1,2.45.77A3.68,3.68,0,0,1,248,31.54a8.68,8.68,0,0,1,.69,2.68q.19,1.62.23,4a24,24,0,0,0,.27,3.62,2.26,2.26,0,0,0,1.06,1.7v.25h-6.56a3.2,3.2,0,0,1-.59-1.43,16.47,16.47,0,0,1-.17-1.68L242.72,35a4.72,4.72,0,0,0-.86-2.74,3.14,3.14,0,0,0-2.63-1h-3.16V43.78h-6Zm6,13h2.49a4.89,4.89,0,0,0,3.32-1,4.36,4.36,0,0,0,1.16-3.43q0-4.11-4.15-4.11h-2.83Z"/>
      <polygon class="cls-2" points="278.22 14.11 278.22 19.01 267.62 19.01 267.62 25.99 277.59 25.99 277.59 30.9 267.62 30.9 267.62 38.88 278.63 38.88 278.63 43.78 261.63 43.78 261.63 14.11 278.22 14.11"/>
      <polygon class="cls-2" points="290.06 14.11 290.06 43.78 307.06 43.78 307.06 38.88 296.04 38.88 296.04 30.9 306.02 30.9 306.02 25.99 296.04 25.99 296.04 19.01 306.64 19.01 306.64 14.11 290.06 14.11"/>
      <path class="cls-2" d="M28.33,56.65A28.33,28.33,0,1,1,56.65,28.33,28.36,28.36,0,0,1,28.33,56.65m0-55.18A26.85,26.85,0,1,0,55.18,28.33,26.88,26.88,0,0,0,28.33,1.47"/>
      <g>
        <path class="cls-2" d="M9.75,32.34a3.45,3.45,0,0,0,1.05,2.13,3.16,3.16,0,0,0,2.25.81,3.43,3.43,0,0,0,2.24-.7,4.72,4.72,0,0,0,1.33-1.76,8.14,8.14,0,0,0,.63-2.3,18.36,18.36,0,0,0,.16-2.32h0a4.69,4.69,0,0,1-4.21,2.63,5.6,5.6,0,0,1-2.16-.4,4.78,4.78,0,0,1-1.64-1.1,4.9,4.9,0,0,1-1.05-1.67,5.91,5.91,0,0,1-.37-2.13,5.67,5.67,0,0,1,.4-2.14,5,5,0,0,1,1.11-1.7,5.17,5.17,0,0,1,1.7-1.12,5.59,5.59,0,0,1,2.16-.41,6.36,6.36,0,0,1,2.49.44,3.88,3.88,0,0,1,1.72,1.45,7.26,7.26,0,0,1,1,2.61,20,20,0,0,1,.33,3.91c0,.32,0,.73-.06,1.24a10.65,10.65,0,0,1-.26,1.64A11.16,11.16,0,0,1,18,33.23a6,6,0,0,1-1,1.62A4.76,4.76,0,0,1,15.41,36a5,5,0,0,1-2.22.45,5.14,5.14,0,0,1-3.36-1,4.52,4.52,0,0,1-1.5-3.11Zm3.44-2.72a4,4,0,0,0,1.66-.33,3.64,3.64,0,0,0,1.24-.89,3.78,3.78,0,0,0,.77-1.32,5,5,0,0,0,.26-1.64,5.43,5.43,0,0,0-.23-1.58,3.47,3.47,0,0,0-.71-1.3A3.35,3.35,0,0,0,15,21.69a4.55,4.55,0,0,0-1.79-.32,3.56,3.56,0,0,0-1.55.33,3.81,3.81,0,0,0-2,2.18,4.53,4.53,0,0,0-.27,1.56,5.06,5.06,0,0,0,.26,1.63,4,4,0,0,0,.75,1.33,3.45,3.45,0,0,0,1.2.89,3.82,3.82,0,0,0,1.62.33"/>
        <path class="cls-2" d="M38.24,31.1a4.63,4.63,0,0,0,.21,1.72,3.41,3.41,0,0,0,2,2.16,4.55,4.55,0,0,0,1.71.31,5.12,5.12,0,0,0,1.5-.23,3.9,3.9,0,0,0,1.3-.68,3.44,3.44,0,0,0,.9-1.1,3.17,3.17,0,0,0,.34-1.5A3.47,3.47,0,0,0,46,30.31a2.89,2.89,0,0,0-.82-1.05,3.5,3.5,0,0,0-1.21-.62,5.25,5.25,0,0,0-1.48-.2h-1.2v-1.2h1.2a4.21,4.21,0,0,0,1.12-.16,2.88,2.88,0,0,0,1.8-1.42,2.69,2.69,0,0,0,.29-1.29A3.06,3.06,0,0,0,45.39,23a2.6,2.6,0,0,0-.75-.94,3.05,3.05,0,0,0-1.11-.54,5.15,5.15,0,0,0-1.33-.17,3.92,3.92,0,0,0-1.56.29,3.19,3.19,0,0,0-1.14.83,3.43,3.43,0,0,0-.69,1.27,5,5,0,0,0-.2,1.62H37.18a6,6,0,0,1,.35-2.07,4.8,4.8,0,0,1,1-1.65,4.59,4.59,0,0,1,1.57-1.09,5.27,5.27,0,0,1,2.08-.4,6.9,6.9,0,0,1,1.81.24,4.92,4.92,0,0,1,1.57.72,3.63,3.63,0,0,1,1.11,1.26,4,4,0,0,1-.27,4,3.33,3.33,0,0,1-2,1.27v0A3.71,3.71,0,0,1,46.83,29a4,4,0,0,1,.85,2.61,4.64,4.64,0,0,1-.44,2.06A4.46,4.46,0,0,1,46,35.24a5.22,5.22,0,0,1-1.74.93,6.83,6.83,0,0,1-2.08.32A6.75,6.75,0,0,1,40,36.12a4.92,4.92,0,0,1-1.76-1.05,4.37,4.37,0,0,1-1.11-1.7,5.39,5.39,0,0,1-.28-2.27Z"/>
        <rect class="cls-2" x="27.2" y="17.14" width="1.23" height="22.38"/>
      </g>
    </g>
  </g>
</svg>
