<svg xmlns="http://www.w3.org/2000/svg" width="449" height="510.96" viewBox="0 0 449 510.96">
  <defs>
    <style>
      .cls-1 {
        fill: #6dcff6;
      }
    </style>
  </defs>
  <title>spacemanPL</title>
  <g id="Layer_2" data-name="Layer 2">
    <g id="Layer_1-2" data-name="Layer 1">
      <g>
        <path class="cls-1" d="M368.08,132.69V95.29c0-7.94-6.22-14.4-13.86-14.4h-.11c-.24,0-24.54,1.07-36.37,1.07s-36.13-1.06-36.37-1.07h-.11c-7.64,0-13.86,6.46-13.86,14.4v35.48c0,25.27,18.43,27.38,37.3,27.38C334.4,158.15,368.08,158.15,368.08,132.69Zm-63.38,20.45c-21.89,0-32.3-3.35-32.3-22.38V95.29a9.16,9.16,0,0,1,8.81-9.4c1.35.06,24.88,1.08,36.53,1.08s35.18-1,36.53-1.08a9.16,9.16,0,0,1,8.81,9.4v37.4C363.08,151.64,337.77,153.15,304.69,153.15Z"/>
        <path class="cls-1" d="M446.5,252.9,426.6,203.2l-.05-.12c-3.84-8.31-11.48-11.58-16.11-12.83L408,174.65c-1.46-7.53-5.7-13.09-11.42-15.49.66-.44,1.08-.74,1.21-.83a2.5,2.5,0,0,0,1-2v-68c0-25-10.84-43.19-31.35-52.72-10.63-4.94-23.33-7.44-37.74-7.44l-.06,2.5-.06-2.5h0c-14.41,0-27.11,2.5-37.74,7.44-20.51,9.53-31.35,27.75-31.35,52.72v77.93a2.5,2.5,0,0,0,.09.65c.31,1.16,2.71,8,16.14,12.89l-19.44,3.08c-6.56,1-10.62,6.08-13.58,9.8-.6.76-1.18,1.48-1.74,2.12l-28.68,32.75L198,233.31a6.53,6.53,0,0,0-6-4h-8.69l-15.22-36.1a15.32,15.32,0,0,0-19.46-8.42l-8.15-18.55h0a2.49,2.49,0,0,0-2.28-1.5h-22.5a2.5,2.5,0,0,0-1.39.42l-5.36,3.59-2.11-4.15h0a2.49,2.49,0,0,0-1.22-1.16,21.8,21.8,0,0,0-8.1-1.51L33.4,18.79a14.84,14.84,0,0,0-.89-10.12C28.79.81,18.78-2.27,10.21,1.79a17.94,17.94,0,0,0-9,9.26A15,15,0,0,0,1.41,23.4a14.76,14.76,0,0,0,6.52,6.74L70.85,174.08c-5,4.2-6.15,7.37-6.27,7.75a2.49,2.49,0,0,0,.16,1.9h0l5.55,10.9-11.63,7.8a2.49,2.49,0,0,0-.34.28l0,0a2.47,2.47,0,0,0-.31.38l0,.06,0,0a2.5,2.5,0,0,0-.22.49l0,.09a2.5,2.5,0,0,0-.08.45s0,.08,0,.13a2.48,2.48,0,0,0,0,.53l0,.09a2.48,2.48,0,0,0,.07.27c0,.06,0,.12.07.18s0,0,0,.07l9.15,20.34a16.11,16.11,0,0,0,1.37,8.21,15.94,15.94,0,0,0,5.55,6.73l-.16.07,10.66,23.69a16.56,16.56,0,0,0,6.91,15.07l-.11,0,40.25,89.47a2.5,2.5,0,0,0,2.28,1.47h.13L164,369a2.5,2.5,0,0,0,1.63-.72h0l43.08-42.68a2.5,2.5,0,0,0,.53-2.78l-9.77-22.25c2.61-1.92,6.84-5.91,6.26-11.25a54.78,54.78,0,0,0,6.64-2.39,6.57,6.57,0,0,0,4-5.83,2.48,2.48,0,0,0,.74-.24L252.74,262,246,320.6a2.5,2.5,0,0,0,2.33,2.78l2.91.18.8,18.11c-5,4.65-7.58,11.13-7.58,18.83a37.42,37.42,0,0,0,1.31,9.7l-14.3,23.63-10-1.41a2.49,2.49,0,0,0-2.46,1.13l-14.15,22.11h0a2.49,2.49,0,0,0-.3,2.09l17.36,55.29a2.5,2.5,0,0,0,2,1.72l65.58,10.29a2.49,2.49,0,0,0,2.63-1.36h0l35.64-72.23h2.38v47.29l-7.66,8a2.5,2.5,0,0,0-.69,1.73h0v26.36a2.5,2.5,0,0,0,2,2.45l69.44,13.66a2.5,2.5,0,0,0,2.08-.53l.06-.06h0L429.48,480a2.5,2.5,0,0,0,.84-2l-6.17-131.23c3.68-3.7,7.52-9,8.47-15.57a21.67,21.67,0,0,0-.39-8.2,2.49,2.49,0,0,0,.38-.63,17,17,0,0,0,.79-2.56l14.43-47.81A27,27,0,0,0,446.5,252.9ZM395.9,354.33l13-7.28,2.48,2.88L399,356.57a.7.7,0,0,1-.8-.1l-2.29-2.13Zm12.37-12.64L399,346.88c1.65-6.53,1.12-15-6.54-21.87l2.17-1.17h0a4.73,4.73,0,0,0,1.86-1.75c2.33-3.94,5-6.85,6.73-7.42,3.1-1,8.25.88,11.49,5.76,2.17,3.27,3.12,7,2.55,10C415.91,337.29,408.34,341.65,408.27,341.69Zm-35.51-11.74-2-2.23,14.9-7.83,2.13,1.94Zm10.78-14.59-13,6.83a11.53,11.53,0,0,1,5.52-5.52l8.18-4.57A13.08,13.08,0,0,0,383.55,315.36ZM383.42,207a34.52,34.52,0,0,0-.63,4.71l-.69-6.16A25.41,25.41,0,0,0,357,183l-21-.14a154.86,154.86,0,0,0,24.83-6.38v.36h25.05a15.07,15.07,0,0,1,13.58,8.62l2,4.25A22.11,22.11,0,0,0,383.42,207Zm1,17.64L397,263.55l-6.32,18.08-6.49-57.78C384.24,224.13,384.3,224.41,384.39,224.68ZM284.2,181.93q1.38.33,2.87.62l-3.85,0Zm118.85-6.42,1.37,8.69-.4-.84a20.09,20.09,0,0,0-18.11-11.49H372.79a165.51,165.51,0,0,0,17.81-9C398,163.23,401.91,169.6,403.05,175.51ZM265.5,165.73V88.25c0-23.2,9.58-39.41,28.46-48.18,10-4.63,22-7,35.63-7h.13c13.68,0,25.67,2.35,35.64,7,18.88,8.77,28.46,25,28.46,48.18V155c-6.25,4.13-39.61,24.85-80.2,24.85C273.47,179.81,266.31,167.48,265.5,165.73Zm-54.8,99.51-7.3-18.42c2.19,1.2,4.75,3.52,6.38,8A18.67,18.67,0,0,1,210.7,265.24Zm-53.55-75.92a10.35,10.35,0,0,1,6.31,5.82l18.89,44.8a26.12,26.12,0,0,0-6.48,6.93l-25.26-57.52A10.35,10.35,0,0,1,157.15,189.32Zm-40.73-19.6h14.15l-17.11,12.63a9.39,9.39,0,0,0,.75-1.74,2.5,2.5,0,0,0-.18-1.82l-2.83-5.56Zm-27.91,31-19.67.86,4-2.71a2.48,2.48,0,0,0,.72.31,24.87,24.87,0,0,0,5.43.5A42.28,42.28,0,0,0,93.63,197Zm15.89-29.87L109,180c-.95,1.76-4.11,6.26-13.27,10.64-9.57,4.58-17.21,4.22-19.93,3.89l-4.59-9h.54A43.9,43.9,0,0,0,90.7,181C98.08,177.43,102.16,173.7,104.4,170.89Zm-7.09-4a17.7,17.7,0,0,1,3.55.32c-1.64,2.22-5.15,5.77-12.32,9.21a39.37,39.37,0,0,1-17.2,4.06,28.61,28.61,0,0,1,3.94-3.58h0a29.49,29.49,0,0,0,13.57-3.25C93.76,171.07,96.18,168.48,97.32,166.92ZM5.86,13a13,13,0,0,1,6.5-6.66A13.45,13.45,0,0,1,18.1,5,10.68,10.68,0,0,1,28,10.81c2.54,5.36-.34,12.07-6.42,15s-13.1.86-15.64-4.5A10.09,10.09,0,0,1,5.86,13Zm10,19.09a18.5,18.5,0,0,0,14.72-7.39l62.5,139.59a20.7,20.7,0,0,1-6.54,5,24.6,24.6,0,0,1-11.14,2.65L14.2,32C14.74,32,15.29,32.07,15.84,32.07ZM72.07,225.3a5.34,5.34,0,0,1,2.85-3.83,4.41,4.41,0,0,1,1.81-.37,6.24,6.24,0,0,1,2.95.82A11.39,11.39,0,0,1,85,233.76a5.34,5.34,0,0,1-2.85,3.83C79,239,74.81,236.42,72.86,232A10.67,10.67,0,0,1,72.07,225.3ZM88.73,225a16,16,0,0,0-5.55-6.77c2.18,0,3.7,1.36,5.8,4.56s2.73,5.94,1.94,8.22a6.34,6.34,0,0,1-.75,1.44A16.31,16.31,0,0,0,88.73,225Zm.74,39.13a5.34,5.34,0,0,1,2.85-3.83,4.36,4.36,0,0,1,1.79-.37c2.76,0,5.87,2.35,7.46,5.91a10.67,10.67,0,0,1,.79,6.75,4.87,4.87,0,0,1-7.6,3.39,11.39,11.39,0,0,1-5.29-11.85Zm16.67-.33a15.91,15.91,0,0,0-5.6-6.77c2.2-.06,3.74,1.33,5.85,4.56s2.73,5.94,1.94,8.22a6.34,6.34,0,0,1-.75,1.44A16.31,16.31,0,0,0,106.14,263.77Zm29.11,101.79-37.7-83.79h.16a9.4,9.4,0,0,0,3.64-.74h0c6.32-2.16,10.26-5.4,11.71-9.63,1.31-3.82.48-8.06-2.48-12.59-6.31-9.65-12.19-7.47-20.45-3h0A9.4,9.4,0,0,0,87,258.21l-6.87-15.27h.27a9.28,9.28,0,0,0,3.58-.72h0c6.32-2.16,10.26-5.4,11.71-9.63,1.31-3.82.48-8.06-2.48-12.59-6.31-9.65-12.19-7.47-20.45-3h0a9.41,9.41,0,0,0-3.2,2.47l-5.67-12.61,24-1.05,72.28,158.44Zm29.43-3.32L92.5,204l44.64-32.94,36.19,82.4c-1,5.6.14,12.76,5.1,22.11,3.06,5.76,6.35,9.51,9.8,11.81L204,323.29Zm32.73-66.36-2.52-5.73a19.06,19.06,0,0,0,3.49.32,22.65,22.65,0,0,0,2.38-.14C200.72,292.6,199,294.58,197.41,295.88Zm13-13.52c-9.77,4.17-19.23,6.62-27.57-9.09-10.21-19.23-2.5-26.31,5.53-31.44h0c2.37-1.51,3.34-3.2,2.9-5a4,4,0,0,0-2.07-2.52H192a1.57,1.57,0,0,1,1.46,1l17.84,45A1.6,1.6,0,0,1,210.42,282.35Zm4.38-6.78L213.39,272c1.59-2.7,4.5-9.47,1.09-18.88S204.22,241.3,201,240.73l-.86-2.16a21.62,21.62,0,0,1,16,12.79C220.69,261.38,216.75,271.57,214.8,275.57Zm6.48-2.55c2-5.87,3.5-14.73-.62-23.74a26.63,26.63,0,0,0-13.95-13.94l8.95-3.42a2.51,2.51,0,0,0,1-.69L245.73,198c.62-.71,1.23-1.48,1.88-2.3,2.72-3.41,5.8-7.28,10.43-8l9.29-1.47-.15.12-.11.07h0a18.68,18.68,0,0,0-7,12.14l-6.63,57.31ZM265,199.25a13.61,13.61,0,0,1,4.94-8.69l3.19-1.94a13.51,13.51,0,0,1,5.37-1.13h.09L357,188a20.4,20.4,0,0,1,20.13,18.11l9.71,86.38-4.28,12.23a2.49,2.49,0,0,0,.38,2.34l-9.28,5.18a16.1,16.1,0,0,0-8.94,12l-.22,1.25-113.29-6.95Zm101.66,131.4,3.66,4.11a2.5,2.5,0,0,0,3.05.54l7.11-3.84,11.65.77c5,7.5,1.42,15.72.09,18.25L256.94,340.42l-.73-16.55ZM290.48,475.78l-14.62-48.92,8-16.82,2.76,6.9a2.5,2.5,0,0,0,2.26,1.57h.06a2.5,2.5,0,0,0,2.27-1.46l14.35-31.43c2.11,11.13,8.45,22,17.08,25.05Zm19.29-98c0-9.43,0-20.07,6.84-27.92l5.93.44c-6.22,8.47-7.28,19.31-7,27.42.55,13.95,6.06,23.33,11.72,28.75h-.88C317.84,405.38,309.77,391.5,309.77,377.79Zm25.4,34.06,1.66.24.48.07,60.78,8.64,2,49.42-65-12.51Zm2.3-4.72c-4-.84-16.08-9.08-16.89-29.6-.32-8.12.86-19.26,8.12-26.76l57.79,4.3c-5,5.82-7.63,16.71-7.63,31.76a42.37,42.37,0,0,0,10.32,27.66Zm-82-61.81,55.19,4.1c-4.86,7.29-5.7,15.88-5.85,23.63l-54.43-4.85a32.56,32.56,0,0,1-1-7.85C249.44,354.06,251.49,349,255.45,345.32Zm-5.68,27.86L303.52,378l-14.47,31.69-2.72-6.8a2.5,2.5,0,0,0-2-1.55l-47.55-6.72ZM222.35,397.6l57.95,8.19-8.58,18.12-60.56-8.82Zm3.9,72.47-15.7-50,60.71,8.84,15.12,50.61Zm107.28-7.6,64.12,12.35-5,5-63.35-13Zm-6.72,30.27V471.51l64.14,13.13.26,20.78ZM396.17,503l-.24-19.35,8.58-8.58h0a2.49,2.49,0,0,0,.74-1.86L403,418.51a2.5,2.5,0,0,0-2.15-2.37l-1.5-.21c-5.31-1.54-15.49-12.76-15.49-29.11,0-15,2.82-25.68,7.68-29.75a4.35,4.35,0,0,0,.34.35l2.92,2.71a5.69,5.69,0,0,0,6.56.85l15.17-8.11.08,0a32.65,32.65,0,0,0,2.73-1.85l5.93,126.12Zm31.5-172.45c-1.2,8.3-8.5,14.42-11.88,16.85l-2.57-3c3-2.26,7.72-6.72,8.92-13,.83-4.32-.37-9.32-3.29-13.72-4.78-7.19-12.26-9.34-17.19-7.75-3.77,1.22-7.11,5.66-9.3,9.31l-3.84-3.5c.14-2.51,2.19-6.43,5.81-9.25l4.41-2.46c6.71-2.43,14.26.38,21.42,8C426,318.26,428.55,324.48,427.68,330.51Zm-3.87-21.92c-12.51-13.34-23.29-11.08-28.6-8.54a21.51,21.51,0,0,0-3.58,2.18l-2.83,1.58c5.07-7.27,15.78-10.67,24.66-7.28,7.31,2.78,12.11,6.73,14.27,11.72a16.12,16.12,0,0,1,1.26,7.07A40.68,40.68,0,0,0,423.81,308.59Zm19.24-38L432.3,306.24c-2.72-6.26-8.46-11.09-17.06-14.37a25.1,25.1,0,0,0-8.95-1.61,27.86,27.86,0,0,0-14.23,4l-.13-1.12,10-28.69a2.5,2.5,0,0,0,0-1.59l-12.84-39.67a29.69,29.69,0,0,1-.83-15.09,17.11,17.11,0,0,1,17.88-13.57c.52.05,11.45,1.33,15.79,10.64l19.9,49.71.05.13A22,22,0,0,1,443.05,270.61Z"/>
        <path class="cls-1" d="M133.66,357.65a2.5,2.5,0,0,0,2.25,1.42h11.57a2.5,2.5,0,0,0,2.27-3.55l-19-40.83a2.5,2.5,0,0,0-2.27-1.45H116.31a2.5,2.5,0,0,0-2.25,3.58Zm-6.74-39.41,16.64,35.83h-6.08l-17.21-35.83Z"/>
        <path class="cls-1" d="M166.29,277.39a11.75,11.75,0,0,0-4.75,2.49l-11.15,7.42a2.52,2.52,0,0,0-.33.26c-.78.74-7.43,7.73-1.39,27,6.43,20.46,18.06,21.86,18.55,21.91h.25a2.48,2.48,0,0,0,.78-.13l12.21-4h0c4.69-1.27,8.24-5.4,10-11.65,1.65-5.85,1.56-13-.25-20.1C186.29,285.14,175.77,275,166.29,277.39Zm1,54a12.54,12.54,0,0,1-4.58-2.56c-2.68-2.23-6.47-6.78-9.29-15.78-4.72-15-.66-20.93,0-21.73l2.59-1.73a39.9,39.9,0,0,0,.37,19.61c2.53,9.92,7.79,17.64,13.74,21.26Zm18.34-12.07c-1.28,4.54-3.62,7.45-6.6,8.21-6.55,1.68-14.72-7.29-17.85-19.55-1.6-6.27-1.7-12.49-.28-17.5,1.28-4.54,3.62-7.45,6.6-8.21a6.52,6.52,0,0,1,1.62-.2c6.22,0,13.36,8.48,16.23,19.75C187,308.06,187.07,314.27,185.65,319.29Z"/>
        <path class="cls-1" d="M153.21,216.31c-3.93-15.41-14.44-25.58-23.93-23.17a11.75,11.75,0,0,0-4.75,2.49L113.38,203a2.52,2.52,0,0,0-.33.26c-.78.74-7.43,7.74-1.39,27,6.43,20.46,18.06,21.86,18.55,21.91h.25a2.48,2.48,0,0,0,.78-.13l12.21-4h0C152.83,245.51,157.11,231.62,153.21,216.31ZM130.52,198a6.52,6.52,0,0,1,1.62-.2c6.22,0,13.36,8.48,16.23,19.75,3.13,12.27.23,24-6.31,25.71S127.33,236,124.2,223.7c-1.6-6.27-1.7-12.49-.28-17.5C125.2,201.66,127.54,198.74,130.52,198Zm-.22,49.13c-1.81-.49-9.17-3.38-13.87-18.34s-.66-20.93,0-21.73l2.59-1.73a39.9,39.9,0,0,0,.37,19.61c2.53,9.92,7.79,17.65,13.74,21.26Z"/>
        <path class="cls-1" d="M313.61,133.39c-1.78-.42-4.84-1.71-7.11-2-5.49-.62-10.21,3.44-9.42,8.07s3.85,7.63,9.29,6.7,14.21-3.44,13.42-8.07C319.24,134.92,317.62,134.34,313.61,133.39Z"/>
        <path class="cls-1" d="M357.91,208.73c-1.49-2.65-5.91-1.42-10.4.67-2.64-1.85-5.86-2.31-7.88-1.17s-2.35,3.86-1.34,7a5,5,0,0,0-1.48,3.24c-3.15,2-7.69,4.94-11.21,7.11a27.09,27.09,0,0,0-5.42-11.67,22.14,22.14,0,0,0-33.83-1.52,28.15,28.15,0,0,0-7.67,19c-8.15,6.06-11.48,10.81-10.15,14.5a5.05,5.05,0,0,0,3,3,12.29,12.29,0,0,0,4.65.74,39.59,39.59,0,0,0,7.81-1c.24.32.45.65.7,1a22.5,22.5,0,0,0,16.56,8.63l1,0a22.58,22.58,0,0,0,16.28-7.13A28.27,28.27,0,0,0,326.18,231c3.85-2.33,10.16-6.33,14-8.82a6.34,6.34,0,0,0,2.06-.07c2.12,2.47,4.5,3.67,6.64,2.47s3.3-4.12,3.09-7.34C356.05,214.52,359.4,211.37,357.91,208.73Zm-68,7.09a17.65,17.65,0,0,1,12.71-5.61l.75,0a17.56,17.56,0,0,1,12.9,6.78A22.51,22.51,0,0,1,321,228.25c-3.84,2.2-7.93,4.33-12.22,6.33A130.31,130.31,0,0,1,286.27,243C281.71,234.35,283,222.92,289.93,215.82Zm-16.69,28.32c.08-.71,1.31-3,5.91-6.79a28.12,28.12,0,0,0,2.12,6.7C276.54,244.84,273.92,244.58,273.24,244.13Zm41.67,3.49a17.56,17.56,0,0,1-13.46,5.59,17.38,17.38,0,0,1-12.14-5.92,148.79,148.79,0,0,0,21.59-8.18c3.53-1.64,6.93-3.37,10.18-5.16A22.9,22.9,0,0,1,314.92,247.62Z"/>
        <path class="cls-1" d="M265.5,433.5l-43.36-6.09a2.5,2.5,0,0,0-2.73,3.24l10.86,34.05a2.5,2.5,0,0,0,2,1.71l42.49,7.23a2.55,2.55,0,0,0,.42,0,2.5,2.5,0,0,0,2.41-3.18l-10-35.2A2.5,2.5,0,0,0,265.5,433.5Zm-30.93,28.23-9.19-28.82,37.81,5.31L271.65,468Z"/>
        <path class="cls-1" d="M295.76,109.29c-1.59,0-2.13.81-4.38,2.18-1.33.82-4.23,1.29-4.23,4.08,0,3.46,2.51,6.26,5.61,6.26s5-2.86,5.61-6.26S298.26,109.28,295.76,109.29Zm0,4.49a1.25,1.25,0,1,1,1.25-1.25A1.25,1.25,0,0,1,295.76,113.79Z"/>
        <path class="cls-1" d="M322.73,111.47c-2.25-1.37-2.78-2.17-4.38-2.18-2.5,0-3.25,2.81-2.61,6.26s2.51,6.26,5.61,6.26S327,119,327,115.55C327,112.77,324.06,112.29,322.73,111.47Zm-4.37,2.31a1.25,1.25,0,1,1,1.25-1.25A1.25,1.25,0,0,1,318.36,113.79Z"/>
      </g>
    </g>
  </g>
</svg>
