<svg xmlns="http://www.w3.org/2000/svg" width="125.56" height="125.56" viewBox="0 0 125.56 125.56">
  <defs>
    <style>
      .cls-1 {
        fill: #6dcff6;
      }
    </style>
  </defs>
  <title>zwSm</title>
  <g id="Layer_2" data-name="Layer 2">
    <g id="Layer_1-2" data-name="Layer 1">
      <path class="cls-1" d="M62.78,125.56a62.78,62.78,0,1,1,62.78-62.78,62.85,62.85,0,0,1-62.78,62.78m0-122.3A59.51,59.51,0,1,0,122.3,62.78,59.58,59.58,0,0,0,62.78,3.27"/>
      <g>
        <path class="cls-1" d="M51.59,74.68v3.08h-25v-3L46.14,50.88H27.91V47.81H50.78v2.61L31,74.68Z"/>
        <path class="cls-1" d="M60.79,47.81l7.66,25.65h.12l7.31-25.65H80l7.31,25.65h.12L95.1,47.81H99L89.35,77.76h-4L78,52.57h-.12L70.54,77.76h-4L56.91,47.81Z"/>
      </g>
    </g>
  </g>
</svg>
