<svg xmlns="http://www.w3.org/2000/svg" width="377.43" height="435.82" viewBox="0 0 377.43 435.82">
  <defs>
    <style>
      .cls-1 {
        fill: #6dcff6;
      }
    </style>
  </defs>
  <title>zwSmV2</title>
  <g id="Layer_2" data-name="Layer 2">
    <g id="Layer_1-2" data-name="Layer 1">
      <path class="cls-1" d="M188.71,435.82,0,326.86V109L188.71,0,377.43,109V326.86ZM35,306.66,188.71,395.4l153.72-88.75V129.16L188.71,40.41,35,129.16Z"/>
      <g>
        <path class="cls-1" d="M101,250.3h28L130.14,237h20.68v34.12H67.46V255.13l47.75-63.43H90.64l-1,13.26H68.85V170.74h80.3v15.49Z"/>
        <path class="cls-1" d="M307.34,187.06l-10.11,1.3-21,82.71H253.65L235,211.36h-.56l-18.64,59.72H193.29l-21-82.71-10.11-1.3V170.74h45.44v16.32l-10.66,2,9.46,45.9h.56l18.73-64.26h18.17l18.92,64.45h.56l9.37-46-10.76-2.13V170.74h45.44Z"/>
      </g>
    </g>
  </g>
</svg>
